<svg xmlns="http://www.w3.org/2000/svg" id="Layer_1" data-name="Layer 1" viewBox="0 0 300 113.37"><defs><style>      .cls-1 {        fill: #337ac1;      }      .cls-2 {        fill: #478cdb;      }      .cls-3 {        fill: #01bace;      }    </style></defs><g><path class="cls-2" d="M290.2,48.11h-12.91c.26,1.15,.41,2.35,.41,3.58,0,8.89-7.2,16.09-16.09,16.09s-16.09-7.2-16.09-16.09c0-1.23,.15-2.43,.41-3.58h-12.91c-.1,.77-.15,1.54-.19,2.33,9.68,4.65,16.36,14.54,16.36,25.99,0,.42-.02,.84-.04,1.25,3.77,1.81,8,2.83,12.46,2.83,15.92,0,28.82-12.9,28.82-28.82,0-1.21-.08-2.41-.23-3.58Z"></path><path class="cls-1" d="M232.84,50.44c-.02,.42-.04,.83-.04,1.25,0,11.45,6.68,21.35,16.36,25.99,.02-.42,.04-.83,.04-1.25,0-11.45-6.68-21.35-16.36-25.99Z"></path></g><g><g><circle class="cls-2" cx="244.8" cy="35.35" r="6.89"></circle><circle class="cls-2" cx="261.62" cy="35.35" r="6.89"></circle></g><circle class="cls-2" cx="278.43" cy="35.35" r="6.89"></circle></g><g><circle class="cls-3" cx="208.55" cy="92.28" r="6.89"></circle><circle class="cls-3" cx="225.37" cy="92.28" r="6.89"></circle></g><path class="cls-3" d="M201.28,80.51c-.26-1.15-.41-2.35-.41-3.58,0-8.89,7.2-16.09,16.09-16.09s16.09,7.2,16.09,16.09c0,1.23-.15,2.43-.41,3.58h12.91c.15-1.17,.23-2.37,.23-3.58,0-15.92-12.9-28.82-28.82-28.82s-28.82,12.9-28.82,28.82c0,1.21,.08,2.41,.23,3.58h12.91Z"></path><g><path class="cls-2" d="M55.77,47.24h-4.95c-.23,9.9-6.42,14.85-18.55,14.85-5.7,0-10.26-1.26-13.67-3.77-3.42-2.52-5.12-6.43-5.12-11.73,0-1.87,.25-3.95,.75-6.25h3.85c-.47,2.23-.7,4.17-.7,5.8,0,4.3,1.31,7.39,3.93,9.27,2.62,1.88,6.27,2.83,10.97,2.83,5.1,0,8.81-.86,11.12-2.58,2.32-1.72,3.54-4.52,3.67-8.42h-4.85c-3.63,0-6.61-.6-8.92-1.8-2.32-1.2-4-2.78-5.05-4.73-1.05-1.95-1.57-4.09-1.57-6.43s.54-4.56,1.62-6.57c1.08-2.02,2.79-3.66,5.12-4.93,2.33-1.27,5.3-1.9,8.9-1.9h8.5v22.65h4.95v3.7Zm-22.5-6.4c1.9,1.8,4.92,2.7,9.05,2.7h4.75V24.74h-4.85c-4.1,0-7.09,.9-8.98,2.7-1.88,1.8-2.82,4.03-2.82,6.7s.95,4.9,2.85,6.7Zm-.3-24.85c-.47-.47-.7-1.02-.7-1.65s.23-1.18,.7-1.62c.47-.45,1.02-.68,1.65-.68s1.18,.23,1.62,.68c.45,.45,.68,.99,.68,1.62s-.23,1.18-.68,1.65c-.45,.47-.99,.7-1.62,.7s-1.18-.23-1.65-.7Zm8,0c-.47-.47-.7-1.02-.7-1.65s.23-1.18,.7-1.62c.47-.45,1.02-.68,1.65-.68s1.18,.23,1.62,.68c.45,.45,.68,.99,.68,1.62s-.23,1.18-.68,1.65c-.45,.47-.99,.7-1.62,.7s-1.18-.23-1.65-.7Z"></path><path class="cls-2" d="M54.22,44.04c.4-.33,.92-.5,1.55-.5h10v3.7h-10c-.67,0-1.19-.17-1.58-.5-.38-.33-.57-.78-.57-1.35s.2-1.02,.6-1.35Z"></path><path class="cls-2" d="M64.22,44.04c.4-.33,.92-.5,1.55-.5h10v3.7h-10c-.67,0-1.19-.17-1.58-.5-.38-.33-.57-.78-.57-1.35s.2-1.02,.6-1.35Z"></path><path class="cls-2" d="M74.22,44.04c.4-.33,.92-.5,1.55-.5h10v3.7h-10c-.67,0-1.19-.17-1.58-.5-.38-.33-.57-.78-.57-1.35s.2-1.02,.6-1.35Z"></path><path class="cls-2" d="M84.22,44.04c.4-.33,.92-.5,1.55-.5h10v3.7h-10c-.67,0-1.19-.17-1.58-.5-.38-.33-.57-.78-.57-1.35s.2-1.02,.6-1.35Z"></path><path class="cls-2" d="M109.72,41.49c1.33,1.37,3.35,2.05,6.05,2.05v3.7c-4.77,0-7.98-1.73-9.65-5.2-.97,1.7-2.33,2.99-4.08,3.88-1.75,.88-3.84,1.33-6.28,1.33-.63,0-1.15-.18-1.55-.55-.4-.37-.6-.83-.6-1.4,0-.53,.19-.96,.57-1.27,.38-.32,.91-.48,1.58-.48,5.4,0,8.1-2.75,8.1-8.25v-11.05h3.85v11.05c0,2.77,.67,4.83,2,6.2Zm-9.6,14.2c-.47-.47-.7-1.02-.7-1.65s.23-1.17,.7-1.62c.47-.45,1.02-.67,1.65-.67s1.17,.23,1.62,.67c.45,.45,.67,.99,.67,1.62s-.22,1.18-.67,1.65c-.45,.47-.99,.7-1.62,.7s-1.18-.23-1.65-.7Zm8,0c-.47-.47-.7-1.02-.7-1.65s.23-1.17,.7-1.62c.47-.45,1.02-.67,1.65-.67s1.17,.23,1.62,.67c.45,.45,.67,.99,.67,1.62s-.22,1.18-.67,1.65c-.45,.47-.99,.7-1.62,.7s-1.18-.23-1.65-.7Z"></path><path class="cls-2" d="M123.87,24.24h3.85v23h-11.95c-.63,0-1.15-.18-1.55-.55-.4-.37-.6-.83-.6-1.4,0-.53,.19-.96,.57-1.27,.38-.32,.91-.48,1.58-.48h8.1V24.24Zm-3.7-5.95c-.47-.47-.7-1.02-.7-1.65s.23-1.17,.7-1.62c.47-.45,1.02-.67,1.65-.67s1.18,.23,1.62,.67c.45,.45,.68,.99,.68,1.62s-.23,1.18-.68,1.65c-.45,.47-.99,.7-1.62,.7s-1.18-.23-1.65-.7Zm4-6.75c-.47-.47-.7-1.02-.7-1.65s.23-1.17,.7-1.62c.47-.45,1.02-.67,1.65-.67s1.18,.23,1.62,.67c.45,.45,.68,.99,.68,1.62s-.23,1.18-.68,1.65c-.45,.47-.99,.7-1.62,.7s-1.18-.23-1.65-.7Zm4,6.75c-.47-.47-.7-1.02-.7-1.65s.23-1.17,.7-1.62c.47-.45,1.02-.67,1.65-.67s1.18,.23,1.62,.67c.45,.45,.68,.99,.68,1.62s-.23,1.18-.68,1.65c-.45,.47-.99,.7-1.62,.7s-1.18-.23-1.65-.7Z"></path><path class="cls-2" d="M161.17,20.89v22.55c-.03,5.37-1.12,9.42-3.27,12.17-2.15,2.75-5.34,4.12-9.58,4.12-1.8,0-3.6-.18-5.4-.55l.05-3.6c1.87,.27,3.47,.4,4.8,.4,3.43,0,5.9-.98,7.4-2.92,1.5-1.95,2.25-5.19,2.25-9.73v-1.35c-.97,1.63-2.26,2.92-3.88,3.85-1.62,.93-3.44,1.4-5.47,1.4s-3.89-.55-5.58-1.65c-1.68-1.1-3.02-2.61-4-4.52-.98-1.92-1.47-4.04-1.47-6.38,0-2.7,.59-5.08,1.77-7.15,1.18-2.07,2.95-3.69,5.3-4.88,2.35-1.18,5.21-1.77,8.57-1.77h8.5Zm-7.85,21.45c1.27-.8,2.27-1.88,3-3.23,.73-1.35,1.1-2.83,1.1-4.42v-9.95h-4.85c-3.93,0-6.88,.89-8.83,2.67-1.95,1.78-2.92,4.19-2.92,7.23,0,1.73,.37,3.27,1.1,4.62s1.73,2.4,3,3.15,2.68,1.12,4.25,1.12,2.88-.4,4.15-1.2Z"></path></g><g><path class="cls-2" d="M25.42,102.14l-8.55-33.7h4.6l4,17.05c1,4.2,1.9,8.4,2.5,11.65h.1c.55-3.35,1.6-7.35,2.75-11.7l4.5-17h4.55l4.1,17.1c.95,4,1.85,8,2.35,11.55h.1c.7-3.7,1.65-7.45,2.7-11.65l4.45-17h4.45l-9.55,33.7h-4.55l-4.25-17.55c-1.05-4.3-1.75-7.6-2.2-11h-.1c-.55,3.35-1.35,6.65-2.6,11l-4.8,17.55h-4.55Z"></path><path class="cls-2" d="M77.42,96.34c0,2.1,.1,4.15,.35,5.8h-3.95l-.35-3.05h-.15c-1.35,1.9-3.95,3.6-7.4,3.6-4.9,0-7.4-3.45-7.4-6.95,0-5.85,5.2-9.05,14.55-9v-.5c0-1.95-.55-5.6-5.5-5.55-2.3,0-4.65,.65-6.35,1.8l-1-2.95c2-1.25,4.95-2.1,8-2.1,7.4,0,9.2,5.05,9.2,9.85v9.05Zm-4.25-6.55c-4.8-.1-10.25,.75-10.25,5.45,0,2.9,1.9,4.2,4.1,4.2,3.2,0,5.25-2,5.95-4.05,.15-.5,.2-1,.2-1.4v-4.2Z"></path><path class="cls-2" d="M89.62,72.13v5.8h6.3v3.35h-6.3v13.05c0,3,.85,4.7,3.3,4.7,1.2,0,1.9-.1,2.55-.3l.2,3.35c-.85,.3-2.2,.6-3.9,.6-2.05,0-3.7-.7-4.75-1.85-1.2-1.35-1.7-3.5-1.7-6.35v-13.2h-3.75v-3.35h3.75v-4.5l4.3-1.3Z"></path><path class="cls-2" d="M100.87,66.63h4.4v15.15h.1c.7-1.25,1.8-2.4,3.15-3.15,1.3-.75,2.85-1.2,4.5-1.2,3.25,0,8.45,2,8.45,10.3v14.4h-4.4v-13.9c0-3.9-1.45-7.15-5.6-7.15-2.85,0-5.05,2-5.9,4.35-.25,.65-.3,1.3-.3,2.1v14.6h-4.4v-35.5Z"></path><path class="cls-2" d="M133.52,71.13c0,1.5-1.05,2.7-2.8,2.7-1.6,0-2.65-1.2-2.65-2.7s1.1-2.75,2.75-2.75,2.7,1.2,2.7,2.75Zm-4.9,31v-24.2h4.4v24.2h-4.4Z"></path><path class="cls-2" d="M144.67,89.04h.1c.6-.85,1.4-1.9,2.1-2.75l7.15-8.35h5.25l-9.3,9.95,10.65,14.25h-5.4l-8.3-11.6-2.25,2.5v9.1h-4.35v-35.5h4.35v22.4Z"></path></g><rect class="cls-2" x="173.81" y="7.59" width="1" height="97.74"></rect></svg>